<?xml version="1.0" encoding="UTF-8" standalone="no"?>
<!-- Created with Inkscape (http://www.inkscape.org/) -->

<svg
   width="512"
   height="512"
   viewBox="0 0 135.46666 135.46667"
   version="1.1"
   id="svg5"
   inkscape:version="1.2 (dc2aedaf03, 2022-05-15)"
   sodipodi:docname="icon.svg"
   xml:space="preserve"
   inkscape:export-filename="icon-48.png"
   inkscape:export-xdpi="9.2159996"
   inkscape:export-ydpi="9.2159996"
   xmlns:inkscape="http://www.inkscape.org/namespaces/inkscape"
   xmlns:sodipodi="http://sodipodi.sourceforge.net/DTD/sodipodi-0.dtd"
   xmlns:xlink="http://www.w3.org/1999/xlink"
   xmlns="http://www.w3.org/2000/svg"
   xmlns:svg="http://www.w3.org/2000/svg"><sodipodi:namedview
     id="namedview7"
     pagecolor="#ffffff"
     bordercolor="#999999"
     borderopacity="1"
     inkscape:showpageshadow="0"
     inkscape:pageopacity="0"
     inkscape:pagecheckerboard="0"
     inkscape:deskcolor="#d1d1d1"
     inkscape:document-units="mm"
     showgrid="false"
     inkscape:zoom="1"
     inkscape:cx="-75"
     inkscape:cy="286"
     inkscape:window-width="1920"
     inkscape:window-height="1017"
     inkscape:window-x="-8"
     inkscape:window-y="-8"
     inkscape:window-maximized="1"
     inkscape:current-layer="g1410" /><defs
     id="defs2"><linearGradient
       id="linearGradient3192"
       inkscape:swatch="gradient"><stop
         style="stop-color:#039be5;stop-opacity:1"
         offset="0"
         id="stop3188" /><stop
         style="stop-color:#42a5f5;stop-opacity:1"
         offset="1"
         id="stop3190" /></linearGradient><linearGradient
       inkscape:collect="always"
       xlink:href="#linearGradient3192"
       id="linearGradient1031"
       gradientUnits="userSpaceOnUse"
       x1="3.5897183"
       y1="3.2173264"
       x2="131.87694"
       y2="132.02687" /></defs><g
     inkscape:label="Layer 1"
     inkscape:groupmode="layer"
     id="layer1"><rect
       style="fill:url(#linearGradient1031);fill-opacity:1;stroke-width:0.264583"
       id="rect68"
       width="132.29167"
       height="132.29167"
       x="1.5874975"
       y="1.5874975"
       ry="12.7" /><g
       style="fill:#000000"
       id="g1410"
       transform="matrix(3.4285591,0,0,3.4285591,26.590624,26.590624)"><g
         id="g2518"
         style="fill:#b9b9b9;fill-opacity:1"
         transform="translate(0.46302249,0.46302249)"><g
           id="g2504"
           style="fill:#b9b9b9;fill-opacity:1" /><g
           id="g2516"
           style="fill:#b9b9b9;fill-opacity:1"><path
             d="M 17,19.22 H 5 V 7 h 7 V 5 H 5 C 3.9,5 3,5.9 3,7 v 12 c 0,1.1 0.9,2 2,2 h 12 c 1.1,0 2,-0.9 2,-2 v -7 h -2 z"
             id="path2506"
             style="fill:#b9b9b9;fill-opacity:1" /><path
             d="m 19,2 h -2 v 3 h -3 c 0.01,0.01 0,2 0,2 h 3 v 2.99 c 0.01,0.01 2,0 2,0 V 7 h 3 V 5 h -3 z"
             id="path2508"
             style="fill:#b9b9b9;fill-opacity:1" /><rect
             height="2"
             width="8"
             x="7"
             y="9"
             id="rect2510"
             style="fill:#b9b9b9;fill-opacity:1" /><polygon
             points="7,14 15,14 15,12 12,12 7,12 "
             id="polygon2512"
             style="fill:#b9b9b9;fill-opacity:1" /><rect
             height="2"
             width="8"
             x="7"
             y="15"
             id="rect2514"
             style="fill:#b9b9b9;fill-opacity:1" /></g></g><g
         id="g1376"><rect
           fill="none"
           height="24"
           width="24"
           id="rect1374"
           x="0"
           y="0" /></g><g
         id="g1392"
         style="fill:#ffffff;fill-opacity:1"><g
           id="g1378"
           style="fill:#ffffff;fill-opacity:1" /><g
           id="g1390"
           style="fill:#ffffff;fill-opacity:1"><path
             d="M 17,19.22 H 5 V 7 h 7 V 5 H 5 C 3.9,5 3,5.9 3,7 v 12 c 0,1.1 0.9,2 2,2 h 12 c 1.1,0 2,-0.9 2,-2 v -7 h -2 z"
             id="path1380"
             style="fill:#ffffff;fill-opacity:1" /><path
             d="m 19,2 h -2 v 3 h -3 c 0.01,0.01 0,2 0,2 h 3 v 2.99 c 0.01,0.01 2,0 2,0 V 7 h 3 V 5 h -3 z"
             id="path1382"
             style="fill:#ffffff;fill-opacity:1" /><rect
             height="2"
             width="8"
             x="7"
             y="9"
             id="rect1384"
             style="fill:#ffffff;fill-opacity:1" /><polygon
             points="7,14 15,14 15,12 12,12 7,12 "
             id="polygon1386"
             style="fill:#ffffff;fill-opacity:1" /><rect
             height="2"
             width="8"
             x="7"
             y="15"
             id="rect1388"
             style="fill:#ffffff;fill-opacity:1" /></g></g></g></g></svg>
